<svg version="1.1" id="Layer_1" xmlns="http://www.w3.org/2000/svg" xmlns:xlink="http://www.w3.org/1999/xlink" x="0" y="0" viewBox="0 0 2069.1 680.2" style="enable-background:new 0 0 2069.1 680.2" xml:space="preserve"><defs><rect id="SVGID_1_" x="453.6" y="248.2" width="1446.2" height="230.1"/></defs><clipPath id="SVGID_00000147918131261758597520000012132147433444660896_"><use xlink:href="#SVGID_1_" style="overflow:visible"/></clipPath><g style="clip-path:url(#SVGID_00000147918131261758597520000012132147433444660896_)"><path d="M671.3 405.4c.7 5.1-.2 10.3-2.6 14.9-6.1 9.2-18.7 11.8-27.9 5.7-2.2-1.5-4.2-3.4-5.7-5.7-2.5-4.5-3.5-9.7-2.7-14.9v-69.5c-6.9 1.2-14.1-.6-19.6-5.1-2.8-3-4.4-6.9-4.5-11 0-8.5 6.6-15.7 15.1-16.3 3-.6 6-.7 9-.5v-17.9c-.7-4.9.3-10 2.7-14.3 3.6-5.8 10.1-9.2 16.8-9 6.6.1 12.7 3.3 16.3 8.8 2.5 4.6 3.3 9.8 2.6 15v17.8h7.2c5.1-.6 10.2.1 14.8 2.2 5.3 2.8 8.7 8.2 8.7 14.2-.1 5.9-3.5 11.3-8.7 13.9-4.6 2-9.8 2.8-14.8 2.2h-7.2l.5 69.5zm41.1-82.6c-1-10.4 6.6-19.7 17.1-20.7.7-.1 1.3-.1 2-.1 7.7 0 11.9 2.5 18.9 11.7 9.3-8.4 21.5-12.9 34.1-12.5 9.2-.1 18.3 1.9 26.5 6.1 4.3 2.3 8 5.6 10.8 9.6 11.1-10.1 25.7-15.7 40.8-15.7 27 0 46.8 17.7 46.8 41.6v62.6c.7 5.1-.2 10.3-2.6 14.9-6.1 9.2-18.7 11.8-27.9 5.7-2.2-1.5-4.2-3.4-5.7-5.7-2.5-4.5-3.5-9.7-2.7-14.9v-54.6c.2-10-7.8-18.4-17.9-18.6-.7 0-1.3 0-2 .1-10.3-.9-19.4 6.7-20.3 17-.1.5-.1 1-.1 1.5v54.6c.7 5.1-.2 10.3-2.7 14.9-3.5 5.6-9.7 9-16.3 9-6.9.1-13.3-3.2-17-9-2.5-4.5-3.3-9.7-2.6-14.9v-51.2c0-13.9-7.4-21.9-20.2-21.9-10.3-.8-19.3 7-20.1 17.2 0 .4-.1.9-.1 1.3v54.6c.7 5.1-.2 10.3-2.6 14.9-6.1 9.2-18.7 11.8-27.9 5.7-2.2-1.5-4.2-3.4-5.7-5.7-2.5-4.5-3.5-9.7-2.7-14.9l.1-82.6zm325.8-2c11.6 12 17.9 28.3 17.4 45 .7 34.8-26.9 63.6-61.8 64.3h-3.5c-17.6-.1-34.5-7.1-47-19.6-11.8-12.3-18.1-28.7-17.4-45.7-.1-35 28.2-63.5 63.3-63.6h2c17.6.1 34.5 7.2 47 19.6zm-74.1 44.5c0 18 11.1 31.2 26 31.2 16-.9 28.2-14.6 27.3-30.7v-.4c1.1-15.9-10.9-29.7-26.9-30.8h-.4c-14.6.1-26 13.5-26 30.7zm201.6-39.4c-.3 8.3-6.8 15-15.1 15.7-4.3 0-4.5 0-16.3-4.9-4.7-2.2-9.7-3.4-14.8-3.7-6.4 0-10.3 2.5-10.3 6.3 0 3.9 2.1 5.8 20.4 12.5 10.9 3 21 8.4 29.6 15.7 6.1 5.8 9.5 14 9.5 22.4 0 23.7-20.9 40.1-51.3 40.1-26.4 0-49.7-12.2-49.7-25.9.4-8.8 7.4-15.9 16.3-16.3 4.5 0 4.5 0 20.2 6.3 4.9 2.3 10.2 3.7 15.5 3.9 6.4 0 11.4-3.7 11.4-8.2s-3-6.3-14.8-10.5c-11-3-21.5-7.5-31.2-13.4-8.9-5.6-14-15.5-13.2-26 0-22.2 21.5-38.9 50-38.9 23.1.2 43.8 11.7 43.8 24.9zm59.5 79.5c.7 5.1-.2 10.3-2.6 14.9-6.1 9.2-18.7 11.8-27.9 5.7-2.2-1.5-4.2-3.4-5.7-5.7-2.5-4.5-3.5-9.7-2.7-14.9V272.1c-.7-5.1.2-10.3 2.7-14.9 6.1-9.2 18.7-11.8 27.9-5.7 2.2 1.5 4.2 3.4 5.7 5.7 2.5 4.5 3.3 9.7 2.6 14.9V344l36.2-33.5c7.7-7.3 11.6-9.3 17.7-9.3 10.1-.4 18.7 7.4 19.1 17.5v.4c0 5.3-2.4 9-10.6 16.3l-24.5 21.5 33.8 38.9c6.6 7.6 8.2 11 8.2 16.3-.9 9.9-9.3 17.5-19.2 17.3-7.1 0-11.4-2.7-18.7-11.5l-41.6-48.8-.4 36.3zm196.4-84.6c11.6 12 17.9 28.3 17.5 45 .7 34.8-26.9 63.6-61.8 64.3h-3c-17.9.1-35-7-47.7-19.6-11.8-12.3-18.1-28.8-17.4-45.7-.1-35 28.2-63.5 63.3-63.6h2c17.6 0 34.6 7.1 47.1 19.6zm-74 44.5c0 18 11.1 31.2 26 31.2 16-.9 28.2-14.6 27.3-30.7v-.4c1.1-15.9-10.9-29.7-26.9-30.8h-.4c-14.3.1-26 13.5-26 30.7zm298.7 46.4c1 11.9-7.9 22.4-19.8 23.4s-22.4-7.9-23.4-19.8 7.9-22.4 19.8-23.4c.7-.1 1.4-.1 2.2-.1 11.3-.1 20.7 8.7 21.2 19.9zm118.3-103.2c6.4 3 10.5 9.3 10.8 16.3.3 8.7-6.6 16-15.3 16.3-4.8-.2-9.7-1.5-14-3.7-4.5-1.7-9.3-2.6-14-2.7-15.9.1-28.7 13-28.6 28.9 0 .7.1 1.4.1 2.2-1.3 15.7 10.4 29.4 26.2 30.7 1.2.1 2.3.1 3.5.1 5.3-.1 10.5-1.3 15.3-3.4 3.3-2 7.2-3.1 11.1-3.2 9 0 16.3 7.3 16.3 16.3-.2 5.3-3 10.2-7.3 13.2-11.8 7.1-25.2 10.7-39 10.5-17.6.5-34.6-6.2-47.1-18.5-12.4-12.1-18.9-28.9-17.8-46.2-.7-18 6.7-35.4 20.2-47.4 13.1-10.7 29.4-16.6 46.3-16.7 11.4-.2 22.8 2.3 33.3 7.3zm111.7 86.6c5.1-.6 10.1.1 14.8 2.2 7.8 3.8 11 13.3 7.2 21.1-1.5 3.1-4 5.6-7.2 7.1-4.6 2.1-9.8 2.8-14.8 2.2h-74.9c-13.4 0-20.2-4.2-20.2-12.2.1-4 1.7-7.9 4.6-10.7l54.7-68.8h-34.9c-5 .6-10.1-.1-14.6-2.2-5.4-2.7-8.8-8.2-9-14.1.1-5.9 3.5-11.3 8.7-14 4.6-2.1 9.8-2.8 14.8-2.2h74.8c7.9-1.1 15.2 4.5 16.3 12.3 0 .2.1.4.1.6-.4 4.6-2.2 9-5.3 12.5l-52.4 66 37.3.2zm-1267.2 4.5L563 282.2c-6.1-16.5-24.4-25-40.9-18.9-8.7 3.2-15.7 10.1-18.9 18.9l-46 117.4c-2.2 4-3.4 8.4-3.4 12.9.9 10.5 10 18.5 20.6 18 10.6 0 16.3-5.6 20.6-19.8l4.3-14.2h22.9c3.5.3 6.9-.5 9.8-2.2 8-5.3 10.3-16.1 5.1-24.1-1.3-2-3-3.7-5.1-5.1s-4.6-2.1-7.1-2.1H512l21.3-62.2 21.5 62.2 12.1 33.5 4.3 14.2c4.5 14.4 10.1 19.8 20.6 19.8 10.6.6 19.8-7.4 20.6-18-.1-4.5-1.1-9-3.3-12.9zm918.4-98.4c-13.2-.7-26 4.5-34.7 14.4-5-10.2-9.8-13.6-18.7-13.6-11.6 0-18.9 8.2-18.9 21.3v131.1c-.7 5.1.2 10.3 2.7 14.9 6.1 9.2 18.7 11.8 27.9 5.7 2.2-1.5 4.2-3.4 5.7-5.7 2.5-4.5 3.5-9.7 2.7-14.9v-39.8l-1.1-48.8c0-17.9 10.8-30.6 26.2-30.6 15.8 1 27.8 14.5 26.8 30.3 0 .2 0 .4-.1.6.4 10.7-4.7 20.8-13.4 26.8h-.8c-2 1.2-4 2.2-6.3 2.7-2 1.1-3.7 2.5-5 4.3-6 8.3-4.1 19.9 4.2 25.9 2.2 1.5 4.6 2.6 7.2 3.2h2.5c29.4-4.6 50.4-30.8 50.4-64.7.1-35.4-25.1-63.1-57.3-63.1z" style="fill:#343434"/></g><linearGradient id="SVGID_00000116956312589253373970000001049326588198931591_" gradientUnits="userSpaceOnUse" x1="522.733" y1="1121.306" x2="863.803" y2="1161.152" gradientTransform="rotate(35.689 1673.973 -65.29)"><stop offset=".286" style="stop-color:#e4c49b"/><stop offset=".76" style="stop-color:#a162bc"/></linearGradient><path style="fill:url(#SVGID_00000116956312589253373970000001049326588198931591_)" d="M270.7 201.4c76.7 55.1 94.2 161.9 39.1 238.5-55.1 76.7-161.9 94.2-238.5 39.1-76.7-55.1-94.2-161.9-39.1-238.5 55-76.6 161.8-94.2 238.5-39.1z"/><linearGradient id="SVGID_00000044141669613421101100000005496211210127169714_" gradientUnits="userSpaceOnUse" x1="254.139" y1="1286.188" x2="29.735" y2="1018.582" gradientTransform="translate(0 -792.493)"><stop offset="0" style="stop-color:#bc52e1"/><stop offset=".323" style="stop-color:#b170cc"/><stop offset=".645" style="stop-color:#ffd8a7"/><stop offset=".833" style="stop-color:#fedeb5"/><stop offset=".994" style="stop-color:#ffedd5"/></linearGradient><path style="fill:url(#SVGID_00000044141669613421101100000005496211210127169714_)" d="M255.1 317.4l.1.1c5.1 17.3 9.7 46.1-.6 76.9-3.8 11.6-9.8 23.4-18.5 35.1-.9 1.2-1.8 2.3-2.7 3.5l-.3.3-.3.3c-.8.9-1.6 1.9-2.4 2.8l-.3.3c-.2.2-.3.4-.5.6-.8.9-1.6 1.8-2.4 2.6-.1.1-.2.2-.3.4-.2.2-.3.4-.5.6-1.1 1.2-2.2 2.3-3.3 3.5-27.4 27.4-38.3 51-42.7 66.4-37.6 2.1-76.2-8.1-109.2-31.8C-5.5 423.9-23 317.1 32.1 240.5c31-43.2 78.5-67.6 127.8-70.9-4.6 15.4-15.7 38.4-42.2 65-1.1 1.1-2.1 2.1-3.1 3.2l-.5.5c-.1.1-.2.2-.2.3-.8.8-1.5 1.6-2.2 2.4-.1.1-.2.3-.3.4-.1.1-.2.3-.3.4-.1.1-.2.3-.3.4l-1.8 2.1c-.2.2-.4.4-.5.7-.7.9-1.4 1.7-2.1 2.6l-.4.5c-.7.9-1.4 1.9-2.1 2.8-.1.1-.2.2-.2.3l-2.1 3-.1.1v.1c-.7 1.1-1.4 2.1-2.1 3.2-.7 1.1-1.4 2.2-2 3.3-4.7 7.9-8.3 15.9-10.9 23.8-11 33.1-4.9 63.9.6 80.6 12.8 41.7 55.1 68.3 99.1 60.4 5.3-1 10.4-2.4 15.3-4.2 5.8-2.2 11.3-4.9 16.3-8.2.1-.1.2-.2.4-.2.2-.1.3-.2.5-.3.8-.5 1.5-1 2.3-1.6.4-.3.8-.5 1.1-.8.7-.5 1.3-1 2-1.5.4-.3.9-.7 1.3-1 .6-.5 1.2-1 1.8-1.4.5-.5 1.1-.9 1.6-1.4.5-.4 1-.8 1.4-1.3 1-.9 1.9-1.8 2.9-2.8l.5-.5c.8-.8 1.6-1.7 2.4-2.5.2-.3.5-.6.7-.8.7-.8 1.4-1.6 2-2.4.2-.3.5-.6.7-.9.7-.8 1.3-1.7 1.9-2.5.1-.1.2-.3.3-.4.1-.1.2-.3.3-.4.7-1 1.4-1.9 2-2.9 11.9-18.1 17.3-40.6 13.1-63.6-.8-2.3-1.4-4.5-1.9-6.7z"/><linearGradient id="SVGID_00000107567815085176975800000014236749682816446383_" gradientUnits="userSpaceOnUse" x1="287.898" y1="1221.662" x2="-29.718" y2="824.57" gradientTransform="translate(0 -792.493)"><stop offset="0" style="stop-color:#ba6ede"/><stop offset=".365" style="stop-color:#ffd8a7"/><stop offset=".833" style="stop-color:#eed0aa"/></linearGradient><path style="fill:url(#SVGID_00000107567815085176975800000014236749682816446383_)" d="M180 510.9c50-2.7 98.3-27.2 129.8-71 55.1-76.7 37.6-183.5-39.1-238.5-33.6-24.1-73-34.3-111.3-31.7-4.6 15.4-15.7 38.3-42.2 64.7-1.1 1.1-2.1 2.1-3.1 3.2-.1.1-.2.3-.4.4-.1.1-.2.3-.4.4-.8.8-1.5 1.6-2.2 2.4-.2.3-.4.5-.7.8-.7.8-1.4 1.6-2.1 2.5-.2.2-.4.4-.5.7-.7.9-1.4 1.8-2.1 2.6l-.4.5c-.7.9-1.4 1.9-2.1 2.8-.1.1-.2.2-.2.3l-2.1 3-.1.2c-.7 1.1-1.4 2.1-2.1 3.2-.7 1.1-1.4 2.2-2 3.3-4.7 7.9-8.3 15.9-10.9 23.8-11 33.1-4.9 63.9.6 80.6-1-3.4-1.9-6.8-2.5-10.3-4.1-23.1 1.3-45.7 13.4-63.9l1.5-2.1c.5-.7 1-1.4 1.5-2 .1-.1.1-.2.2-.2.4-.6.8-1.1 1.3-1.7.7-.9 1.4-1.7 2.1-2.5.6-.7 1.2-1.4 1.9-2.1.8-.9 1.6-1.7 2.4-2.6.4-.4.8-.7 1.1-1.1l.3-.3c.8-.7 1.5-1.4 2.3-2.1 11.7-10.4 26.2-17.9 42.7-20.8 44-7.9 86.3 18.7 99.1 60.4.4 1.2.8 2.4 1.2 3.7 5.1 17.3 9.7 46.1-.5 76.9-3.8 11.6-9.8 23.5-18.5 35.1-.9 1.2-1.8 2.3-2.7 3.5-.2.2-.4.4-.5.6-.8 1-1.6 1.9-2.4 2.8-.3.3-.5.6-.8.9-.8.9-1.6 1.8-2.4 2.6-.1.2-.3.3-.4.5s-.3.3-.4.5c-1.1 1.2-2.2 2.3-3.3 3.5-27.8 27.4-38.7 51.1-43 66.5z"/><linearGradient id="SVGID_00000065070344125445545350000006849265126637298064_" gradientUnits="userSpaceOnUse" x1="114.517" y1="1113.203" x2="271.121" y2="1253.239" gradientTransform="translate(0 -792.493)"><stop offset=".212" style="stop-color:#511093"/><stop offset="1" style="stop-color:#c06aea;stop-opacity:.75"/></linearGradient><path style="opacity:.5;fill:url(#SVGID_00000065070344125445545350000006849265126637298064_);enable-background:new" d="M208.7 245l63 159.8c3 5.4 4.4 11.5 4.4 17.7-1.1 14.4-13.6 25.3-28.1 24.6-14.4 0-22-7.3-28.1-26.9l-5.8-19.3-16.6-45.6-29.3-84.7-29.1 84.7h17.6c3.5 0 6.8 1 9.7 2.8 2.8 1.9 5.1 4.1 6.9 6.9 7.2 10.9 4 25.6-6.9 32.8-4 2.3-8.7 3.3-13.4 2.9h-31.3l-5.8 19.3c-5.8 19.3-13.6 26.9-28.1 26.9-4.7.2-9.2-.8-13.2-2.7l-.3.6 63 63c63.8 12.8 132.1-11.6 172.5-67.9 15.5-21.6 25.3-45.6 29.6-70.1L200 230.5l-.4-.2c3.9 4.2 7.1 9.1 9.1 14.7z"/><path d="M271.7 404.8l-63-159.8c-8.3-22.5-33.2-34-55.8-25.7-11.9 4.4-21.4 13.8-25.8 25.7L64.4 404.8c-3.1 5.4-4.6 11.4-4.6 17.6 1.3 14.3 13.6 25.2 28.1 24.6 14.5 0 22.3-7.7 28.1-26.9l5.8-19.3h31.3c4.7.4 9.4-.7 13.4-2.9 11-7.2 14.1-21.9 6.9-32.8-1.8-2.8-4.1-5-6.9-6.9-2.9-1.9-6.2-2.8-9.7-2.8h-17.7l29.1-84.7 29.3 84.7 16.6 45.6 5.8 19.3c6.1 19.6 13.7 26.9 28.1 26.9 14.5.8 27-10.1 28.1-24.6 0-6.3-1.5-12.4-4.4-17.8z" style="fill:#fff"/></svg>