<?xml version="1.0"?>
<svg xmlns="http://www.w3.org/2000/svg" width="164" height="60" viewBox="0 0 150 55" fill="none" preserveAspectRatio="xMinYMin">
<path d="M36.7578 0C46.1803 0 53.8193 7.74889 53.8193 17.3076C53.8193 21.2361 52.5275 24.8579 50.3535 27.7627C50.3885 28.3143 50.4082 28.871 50.4082 29.4316C50.408 43.5527 39.1239 55 25.2041 55C11.2844 54.9999 0.00022254 43.5526 0 29.4316C0 15.3105 11.2842 3.86243 25.2041 3.8623C25.4697 3.8623 25.7345 3.8677 25.998 3.87598C28.9335 1.4529 32.6784 8.69317e-05 36.7578 0Z" fill="url(#paint0_linear_269_3124)"/>
<path d="M76.2176 16.2861L74.9841 23.4109C74.7827 24.6111 74.1849 25.6326 73.1968 26.4753C72.2088 27.3244 71.1264 27.7458 69.9432 27.7458H61.6991C60.6607 27.7458 59.8049 27.4074 59.1378 26.7243C58.4644 26.0412 58.1309 25.1985 58.1309 24.1834C58.1309 23.9153 58.1497 23.6599 58.1938 23.4109L59.3895 16.2861H64.9024L63.8891 22.1724H69.7104L69.981 20.621H67.5329L68.2692 16.2861H76.2176ZM77.4573 9.16773L76.4567 14.7412H59.6916L59.9055 13.5026C60.1069 12.3088 60.7048 11.2809 61.6928 10.4382C62.6809 9.58909 63.7633 9.16773 64.9464 9.16773H77.4636H77.4573Z" fill="#2F3541"/>
<path d="M94.5495 16.2861C94.4488 16.9246 93.9264 17.6524 92.9887 18.4568C93.5363 19.159 93.8132 19.7783 93.8132 20.3146C93.8258 20.4167 93.832 20.5189 93.832 20.6274L92.5671 27.7458H87.1109L88.3444 20.621H82.498L81.2582 27.7458H75.7705L77.7655 16.2861H94.5495ZM95.097 12.7557C95.097 13.0046 95.0781 13.2536 95.034 13.4962L94.8201 14.7348H78.0361L79.0052 9.16135H91.5224C92.5608 9.16135 93.4167 9.49971 94.0838 10.1828C94.7571 10.8659 95.0907 11.7214 95.0907 12.7557H95.097Z" fill="#2F3541"/>
<path d="M110.723 27.7458H105.229L105.046 25.2687H99.8731L98.8347 27.7458H93.3281L98.1487 16.2861H102.246C103.146 16.2861 103.611 16.2861 103.655 16.2861L101.843 20.6146H104.744L104.41 16.2797H109.904L110.729 27.7394L110.723 27.7458ZM109.779 14.7412H98.7969L101.138 9.16773H109.382L109.779 14.7412Z" fill="#2F3541"/>
<path d="M118.967 16.2861L116.972 27.7458H111.484L113.479 16.2861H118.967ZM130.811 12.7557C130.811 13.0046 130.792 13.2536 130.748 13.4962L130.534 14.7348H113.75L114.719 9.16135H127.236C128.275 9.16135 129.131 9.49971 129.798 10.1828C130.465 10.8659 130.805 11.7214 130.805 12.7557H130.811ZM130.263 16.2861L128.275 27.7458H122.787L124.776 16.2861H130.263Z" fill="#2F3541"/>
<path d="M148.583 16.2861L147.356 23.4109C147.155 24.6111 146.557 25.6326 145.569 26.4753C144.581 27.3244 143.498 27.7458 142.315 27.7458H129.798L131.793 16.2861H137.249L136.255 22.1724H142.044L143.058 16.2861H148.571H148.583ZM149.124 12.7557C149.124 13.0046 149.105 13.2536 149.061 13.4962L148.847 14.7348H132.063L133.033 9.16135H145.55C146.588 9.16135 147.444 9.49971 148.111 10.1828C148.784 10.8659 149.118 11.7214 149.118 12.7557H149.124Z" fill="#2F3541"/>
<path d="M71.7365 38.2351C71.5351 39.4353 70.9436 40.4568 69.9618 41.2995C68.9864 42.1486 67.904 42.5699 66.7208 42.5699H59.6913L58.4515 49.6947H52.9639L54.9588 38.2351H71.7365ZM72.284 34.7046C72.284 34.9536 72.2652 35.2026 72.2211 35.4452L72.0071 36.6837H55.2231L56.1923 31.1103H68.7095C69.7479 31.1103 70.6038 31.4486 71.2708 32.1318C71.9442 32.8149 72.2777 33.6703 72.2777 34.7046H72.284Z" fill="#2F3541"/>
<path d="M90.0495 38.2351C89.9488 38.8735 89.4264 39.6013 88.4888 40.4057C89.0363 41.108 89.3132 41.7272 89.3132 42.2635C89.3257 42.3656 89.332 42.4678 89.332 42.5763L88.0671 49.6947H82.6109L83.8444 42.5699H77.998L76.7582 49.6947H71.2705L73.2655 38.2351H90.0495ZM90.597 34.7046C90.597 34.9536 90.5781 35.2026 90.534 35.4452L90.3201 36.6837H73.5361L74.5052 31.1103H87.0224C88.0608 31.1103 88.9167 31.4486 89.5838 32.1318C90.2571 32.8149 90.5907 33.6703 90.5907 34.7046H90.597Z" fill="#2F3541"/>
<path d="M97.0481 38.2351L95.0531 49.6947H89.5654L91.5604 38.2351H97.0481ZM98.2878 31.1103L97.2872 36.6837H91.7995L92.8001 31.1103H98.2878Z" fill="#2F3541"/>
<path d="M114.128 49.6883H107.721L105.707 45.4173L102.227 49.6883H95.8145L103.385 40.3929L102.378 38.2287H111.56L109.792 40.3993L114.128 49.6883ZM117.369 31.1103L112.825 36.6837H101.648L99.0555 31.1103H105.462L107.476 35.3749L110.95 31.1103H117.362H117.369Z" fill="#2F3541"/>
<path d="M30.2317 33.083L30.5023 31.538H42.4783L43.7055 24.3813C44.0453 22.3958 42.535 20.5763 40.5526 20.5763H27.4501L26.5628 25.9008H38.6898L38.4192 27.4457H26.3047L24.5049 38.2797H41.3329L42.2203 33.083H30.238H30.2317Z" fill="white"/>
<path d="M25.6258 20.5636H20.4717L19.6221 25.9008H24.751L25.6258 20.5636Z" fill="white"/>
<path d="M24.4927 27.4459H13.8257L14.0964 25.9073L15.0466 20.5701H9.79808L6.66406 38.2927H12.0259L13.1146 31.5191H18.6652L17.5765 38.2927H22.6362L23.7564 31.9596L24.4927 27.4459Z" fill="white"/>
<defs>
<linearGradient id="paint0_linear_269_3124" x1="27.8074" y1="1.47709" x2="79.6092" y2="45.8034" gradientUnits="userSpaceOnUse">
<stop stop-color="#0073FF"/>
<stop offset="1" stop-color="#B9F1D0"/>
</linearGradient>
</defs>
</svg>
